<svg xmlns="http://www.w3.org/2000/svg" xmlns:xlink="http://www.w3.org/1999/xlink" width="500" zoomAndPan="magnify" viewBox="0 0 375 374.999991" height="500" preserveAspectRatio="xMidYMid meet" version="1.0"><defs><g/><clipPath id="8d5d828e47"><path d="M 117.363281 89 L 221 89 L 221 238.917969 L 117.363281 238.917969 Z M 117.363281 89 " clip-rule="nonzero"/></clipPath></defs><g clip-path="url(#8d5d828e47)"><path fill="#000000" d="M 128.382812 237.835938 C 126.871094 237.578125 123.808594 235.371094 121.511719 232.878906 L 117.363281 228.390625 L 117.363281 219.277344 C 117.363281 193.246094 120.949219 117.246094 122.289062 114.859375 C 123.320312 113.023438 128.308594 111.078125 166.511719 97.636719 C 179.824219 92.953125 191.894531 89.121094 193.328125 89.121094 C 194.804688 89.121094 197.628906 90.566406 199.828125 92.445312 C 203.746094 95.792969 210.625 98.269531 216.007812 98.269531 C 221.507812 98.269531 221.613281 98.960938 220.320312 126.496094 C 219.675781 140.3125 218.625 162.824219 217.992188 176.519531 C 217.222656 193.140625 216.386719 202.316406 215.480469 204.117188 C 214.59375 205.886719 212.445312 207.4375 209.265625 208.609375 C 190.519531 215.515625 144.835938 234.058594 142.46875 235.726562 C 139.550781 237.78125 133.414062 238.699219 128.382812 237.839844 Z M 140.113281 231.90625 L 145.359375 230.382812 L 145.359375 207.316406 L 138.542969 207.800781 C 133.613281 208.152344 130.550781 207.816406 127.472656 206.585938 C 125.132812 205.652344 122.984375 205.121094 122.695312 205.40625 C 121.878906 206.222656 121.097656 224.832031 121.769531 227.488281 C 122.546875 230.566406 127.132812 233.363281 131.460938 233.398438 C 133.335938 233.414062 137.226562 232.742188 140.113281 231.90625 Z M 180.28125 215.574219 C 196.910156 209.109375 210.917969 203.425781 211.414062 202.941406 C 212.257812 202.117188 213.511719 182.34375 216.144531 128.402344 C 216.769531 115.632812 217.089844 105 216.859375 104.769531 C 216.628906 104.535156 202.507812 108.613281 185.480469 113.828125 L 154.523438 123.3125 L 153.855469 129.992188 C 153.226562 136.265625 152.339844 151.632812 149.886719 198.875 C 149.320312 209.773438 148.59375 220.632812 148.265625 223.007812 C 147.863281 225.957031 148.050781 227.328125 148.859375 227.328125 C 149.511719 227.328125 163.652344 222.039062 180.28125 215.574219 Z M 143.433594 202.335938 C 145.800781 201.703125 146.078125 199.660156 147.535156 172.113281 L 148.226562 159.066406 L 143.230469 159.890625 C 136.171875 161.054688 132.042969 160.679688 127.574219 158.472656 L 123.695312 156.558594 L 122.960938 176.558594 C 122.558594 187.5625 122.519531 197.472656 122.871094 198.589844 C 123.226562 199.703125 124.539062 201.105469 125.785156 201.707031 C 128.207031 202.875 139.871094 203.289062 143.433594 202.335938 Z M 143.207031 155.003906 C 145.511719 154.351562 147.6875 153.550781 148.039062 153.226562 C 148.394531 152.902344 149 146.058594 149.390625 138.015625 C 150.039062 124.632812 149.957031 123.449219 148.40625 124.042969 C 147.476562 124.398438 144.207031 124.984375 141.144531 125.34375 C 136.550781 125.882812 134.691406 125.585938 130.542969 123.648438 C 127.777344 122.355469 125.328125 121.488281 125.101562 121.722656 C 124.875 121.957031 124.535156 128.601562 124.347656 136.488281 C 123.984375 151.699219 124.398438 153.347656 129.035156 155.226562 C 132.082031 156.457031 138.429688 156.359375 143.207031 155.003906 Z M 169.960938 109.800781 C 190.863281 101.785156 200.84375 97.480469 200.84375 96.480469 C 200.84375 95.488281 200.257812 95.226562 199.0625 95.683594 C 160.796875 110.335938 135.988281 120.085938 135.230469 120.769531 C 132.074219 123.613281 142.640625 120.273438 169.960938 109.800781 Z M 181.757812 111.269531 C 197.292969 106.09375 210.007812 101.503906 210.007812 101.078125 C 210.007812 98.71875 200.191406 101.289062 177.6875 109.539062 C 163.828125 114.621094 151.800781 119.179688 150.960938 119.671875 C 146.078125 122.523438 156.5625 119.664062 181.757812 111.269531 Z M 157.578125 108.429688 L 188.375 97.042969 C 192.992188 95.332031 196.773438 93.503906 196.773438 92.984375 C 196.773438 92.460938 195.742188 92.355469 194.480469 92.75 C 154.179688 105.339844 126.636719 114.542969 125.953125 115.648438 C 125.613281 116.199219 125.871094 117.296875 126.527344 118.085938 C 127.550781 119.316406 128.253906 119.320312 131.449219 118.113281 C 133.5 117.335938 145.257812 112.980469 157.578125 108.429688 Z M 157.578125 108.429688 " fill-opacity="1" fill-rule="nonzero"/></g><g fill="#000000" fill-opacity="0.4"><g transform="translate(171.232939, 159.450037)"><g><path d="M 10.398438 -2.59375 C 10.824219 -3.921875 10.910156 -5.445312 11.074219 -6.730469 C 11.15625 -7.414062 11.234375 -8.097656 11.3125 -8.78125 C 11.382812 -9.257812 11.730469 -10.128906 11.125 -10.292969 C 10.59375 -10.449219 9.714844 -10.847656 9.257812 -10.363281 C 8.882812 -9.996094 8.902344 -9.3125 8.816406 -8.824219 C 8.570312 -7.195312 8.371094 -5.542969 8.078125 -3.921875 C 7.867188 -2.640625 7.273438 -1.515625 5.847656 -1.390625 C 4.265625 -1.257812 3.230469 -2.519531 3.113281 -3.988281 C 3.023438 -5.082031 3.300781 -6.242188 3.453125 -7.332031 C 3.621094 -8.523438 3.789062 -9.710938 3.96875 -10.878906 C 4.0625 -11.5625 2.546875 -11.582031 2.0625 -11.566406 C 1.671875 -11.558594 1.652344 -11.414062 1.597656 -11.035156 C 1.269531 -8.464844 0.621094 -5.90625 0.804688 -3.3125 C 1.054688 0.308594 5.957031 1.871094 8.691406 -0.121094 C 8.78125 -0.1875 8.871094 -0.253906 8.960938 -0.324219 C 9.183594 -0.519531 9.390625 -0.730469 9.566406 -0.949219 C 9.925781 -1.433594 10.199219 -2.007812 10.398438 -2.59375 Z M 10.398438 -2.59375 "/></g></g></g><g fill="#000000" fill-opacity="0.4"><g transform="translate(184.2327, 160.715861)"><g/></g></g><g fill="#000000" fill-opacity="1"><g transform="translate(170.326641, 159.027431)"><g><path d="M 10.398438 -2.59375 C 10.824219 -3.921875 10.910156 -5.445312 11.074219 -6.730469 C 11.15625 -7.414062 11.234375 -8.097656 11.3125 -8.78125 C 11.382812 -9.257812 11.730469 -10.128906 11.125 -10.292969 C 10.59375 -10.449219 9.714844 -10.847656 9.257812 -10.363281 C 8.882812 -9.996094 8.902344 -9.3125 8.816406 -8.824219 C 8.570312 -7.195312 8.371094 -5.542969 8.078125 -3.921875 C 7.867188 -2.640625 7.273438 -1.515625 5.847656 -1.390625 C 4.265625 -1.257812 3.230469 -2.519531 3.113281 -3.988281 C 3.023438 -5.082031 3.300781 -6.242188 3.453125 -7.332031 C 3.621094 -8.523438 3.789062 -9.710938 3.96875 -10.878906 C 4.0625 -11.5625 2.546875 -11.582031 2.0625 -11.566406 C 1.671875 -11.558594 1.652344 -11.414062 1.597656 -11.035156 C 1.269531 -8.464844 0.621094 -5.90625 0.804688 -3.3125 C 1.054688 0.308594 5.957031 1.871094 8.691406 -0.121094 C 8.78125 -0.1875 8.871094 -0.253906 8.960938 -0.324219 C 9.183594 -0.519531 9.390625 -0.730469 9.566406 -0.949219 C 9.925781 -1.433594 10.199219 -2.007812 10.398438 -2.59375 Z M 10.398438 -2.59375 "/></g></g></g><g fill="#000000" fill-opacity="1"><g transform="translate(183.326402, 160.29324)"><g/></g></g><g fill="#000000" fill-opacity="0.4"><g transform="translate(183.476058, 177.72071)"><g><path d="M 3.757812 -2.816406 C 3.757812 -2.816406 3.773438 -2.8125 3.789062 -2.8125 C 5.035156 -2.621094 6.417969 -2.457031 7.664062 -2.800781 C 9.644531 -3.34375 10.4375 -4.851562 10.246094 -7.71875 C 10.15625 -9.15625 9.195312 -9.902344 8.390625 -10.273438 C 7.300781 -10.800781 6.109375 -11.046875 4.921875 -11.230469 C 4.320312 -11.332031 3.734375 -11.414062 3.136719 -11.515625 C 2.742188 -11.585938 2.097656 -11.820312 1.761719 -11.511719 C 1.480469 -11.214844 1.535156 -10.460938 1.480469 -10.082031 C 1.253906 -8.351562 1.015625 -6.640625 0.769531 -4.914062 C 0.636719 -4.0625 0.515625 -3.222656 0.398438 -2.367188 C 0.339844 -1.957031 0.277344 -1.527344 0.21875 -1.101562 C 0.183594 -0.847656 -0.0195312 -0.308594 0.175781 -0.0898438 C 0.359375 0.0976562 0.71875 0.0703125 0.953125 0.101562 C 1.335938 0.140625 1.734375 0.179688 2.132812 0.234375 C 2.214844 0.230469 2.308594 0.242188 2.394531 0.207031 C 2.652344 0.0976562 2.644531 -0.757812 2.675781 -0.996094 C 2.746094 -1.503906 2.785156 -2 2.855469 -2.507812 C 2.917969 -2.933594 3.4375 -2.859375 3.757812 -2.816406 Z M 3.328125 -5.414062 L 3.808594 -8.820312 C 3.824219 -8.929688 3.882812 -9.019531 3.972656 -9.085938 C 4.261719 -9.289062 5.007812 -9.070312 5.339844 -9.023438 C 6.351562 -8.882812 7.28125 -8.589844 7.652344 -7.550781 C 7.882812 -6.90625 7.652344 -5.824219 7.15625 -5.277344 C 6.675781 -4.75 6.03125 -4.644531 5.347656 -4.726562 C 5.015625 -4.753906 4.6875 -4.835938 4.335938 -4.882812 C 4.070312 -4.9375 3.625 -4.871094 3.429688 -5.089844 C 3.34375 -5.183594 3.3125 -5.300781 3.328125 -5.414062 Z M 3.328125 -5.414062 "/></g></g></g><g fill="#000000" fill-opacity="0.4"><g transform="translate(195.62327, 178.965299)"><g/></g></g><g fill="#000000" fill-opacity="1"><g transform="translate(182.56976, 177.298089)"><g><path d="M 3.757812 -2.816406 C 3.757812 -2.816406 3.773438 -2.8125 3.789062 -2.8125 C 5.035156 -2.621094 6.417969 -2.457031 7.664062 -2.800781 C 9.644531 -3.34375 10.4375 -4.851562 10.246094 -7.71875 C 10.15625 -9.15625 9.195312 -9.902344 8.390625 -10.273438 C 7.300781 -10.800781 6.109375 -11.046875 4.921875 -11.230469 C 4.320312 -11.332031 3.734375 -11.414062 3.136719 -11.515625 C 2.742188 -11.585938 2.097656 -11.820312 1.761719 -11.511719 C 1.480469 -11.214844 1.535156 -10.460938 1.480469 -10.082031 C 1.253906 -8.351562 1.015625 -6.640625 0.769531 -4.914062 C 0.636719 -4.0625 0.515625 -3.222656 0.398438 -2.367188 C 0.339844 -1.957031 0.277344 -1.527344 0.21875 -1.101562 C 0.183594 -0.847656 -0.0195312 -0.308594 0.175781 -0.0898438 C 0.359375 0.0976562 0.71875 0.0703125 0.953125 0.101562 C 1.335938 0.140625 1.734375 0.179688 2.132812 0.234375 C 2.214844 0.230469 2.308594 0.242188 2.394531 0.207031 C 2.652344 0.0976562 2.644531 -0.757812 2.675781 -0.996094 C 2.746094 -1.503906 2.785156 -2 2.855469 -2.507812 C 2.917969 -2.933594 3.4375 -2.859375 3.757812 -2.816406 Z M 3.328125 -5.414062 L 3.808594 -8.820312 C 3.824219 -8.929688 3.882812 -9.019531 3.972656 -9.085938 C 4.261719 -9.289062 5.007812 -9.070312 5.339844 -9.023438 C 6.351562 -8.882812 7.28125 -8.589844 7.652344 -7.550781 C 7.882812 -6.90625 7.652344 -5.824219 7.15625 -5.277344 C 6.675781 -4.75 6.03125 -4.644531 5.347656 -4.726562 C 5.015625 -4.753906 4.6875 -4.835938 4.335938 -4.882812 C 4.070312 -4.9375 3.625 -4.871094 3.429688 -5.089844 C 3.34375 -5.183594 3.3125 -5.300781 3.328125 -5.414062 Z M 3.328125 -5.414062 "/></g></g></g><g fill="#000000" fill-opacity="1"><g transform="translate(194.716955, 178.542678)"><g/></g></g></svg>