<svg xmlns="http://www.w3.org/2000/svg" xmlns:xlink="http://www.w3.org/1999/xlink" width="500" zoomAndPan="magnify" viewBox="0 0 375 374.999991" height="500" preserveAspectRatio="xMidYMid meet" version="1.0"><defs><clipPath id="0183420d87"><path d="M 117.363281 89 L 221 89 L 221 238.917969 L 117.363281 238.917969 Z M 117.363281 89 " clip-rule="nonzero"/></clipPath></defs><g clip-path="url(#0183420d87)"><path fill="#000000" d="M 128.382812 237.835938 C 126.871094 237.578125 123.808594 235.371094 121.511719 232.878906 L 117.363281 228.390625 L 117.363281 219.277344 C 117.363281 193.246094 120.949219 117.246094 122.289062 114.859375 C 123.320312 113.023438 128.308594 111.078125 166.511719 97.636719 C 179.824219 92.953125 191.894531 89.121094 193.328125 89.121094 C 194.804688 89.121094 197.628906 90.566406 199.828125 92.445312 C 203.746094 95.792969 210.625 98.269531 216.007812 98.269531 C 221.507812 98.269531 221.613281 98.960938 220.320312 126.496094 C 219.675781 140.3125 218.625 162.824219 217.992188 176.519531 C 217.222656 193.140625 216.386719 202.316406 215.480469 204.117188 C 214.59375 205.886719 212.445312 207.4375 209.265625 208.609375 C 190.519531 215.515625 144.835938 234.058594 142.46875 235.726562 C 139.550781 237.78125 133.414062 238.699219 128.382812 237.839844 Z M 140.113281 231.90625 L 145.359375 230.382812 L 145.359375 207.316406 L 138.542969 207.800781 C 133.613281 208.152344 130.550781 207.816406 127.472656 206.585938 C 125.132812 205.652344 122.984375 205.121094 122.695312 205.40625 C 121.878906 206.222656 121.097656 224.832031 121.769531 227.488281 C 122.546875 230.566406 127.132812 233.363281 131.460938 233.398438 C 133.335938 233.414062 137.226562 232.742188 140.113281 231.90625 Z M 180.28125 215.574219 C 196.910156 209.109375 210.917969 203.425781 211.414062 202.941406 C 212.257812 202.117188 213.511719 182.34375 216.144531 128.402344 C 216.769531 115.632812 217.089844 105 216.859375 104.769531 C 216.628906 104.535156 202.507812 108.613281 185.480469 113.828125 L 154.523438 123.3125 L 153.855469 129.992188 C 153.226562 136.265625 152.339844 151.632812 149.886719 198.875 C 149.320312 209.773438 148.59375 220.632812 148.265625 223.007812 C 147.863281 225.957031 148.050781 227.328125 148.859375 227.328125 C 149.511719 227.328125 163.652344 222.039062 180.28125 215.574219 Z M 143.433594 202.335938 C 145.800781 201.703125 146.078125 199.660156 147.535156 172.113281 L 148.226562 159.066406 L 143.230469 159.890625 C 136.171875 161.054688 132.042969 160.679688 127.574219 158.472656 L 123.695312 156.558594 L 122.960938 176.558594 C 122.558594 187.5625 122.519531 197.472656 122.871094 198.589844 C 123.226562 199.703125 124.539062 201.105469 125.785156 201.707031 C 128.207031 202.875 139.871094 203.289062 143.433594 202.335938 Z M 143.207031 155.003906 C 145.511719 154.351562 147.6875 153.550781 148.039062 153.226562 C 148.394531 152.902344 149 146.058594 149.390625 138.015625 C 150.039062 124.632812 149.957031 123.449219 148.40625 124.042969 C 147.476562 124.398438 144.207031 124.984375 141.144531 125.34375 C 136.550781 125.882812 134.691406 125.585938 130.542969 123.648438 C 127.777344 122.355469 125.328125 121.488281 125.101562 121.722656 C 124.875 121.957031 124.535156 128.601562 124.347656 136.488281 C 123.984375 151.699219 124.398438 153.347656 129.035156 155.226562 C 132.082031 156.457031 138.429688 156.359375 143.207031 155.003906 Z M 169.960938 109.800781 C 190.863281 101.785156 200.84375 97.480469 200.84375 96.480469 C 200.84375 95.488281 200.257812 95.226562 199.0625 95.683594 C 160.796875 110.335938 135.988281 120.085938 135.230469 120.769531 C 132.074219 123.613281 142.640625 120.273438 169.960938 109.800781 Z M 181.757812 111.269531 C 197.292969 106.09375 210.007812 101.503906 210.007812 101.078125 C 210.007812 98.71875 200.191406 101.289062 177.6875 109.539062 C 163.828125 114.621094 151.800781 119.179688 150.960938 119.671875 C 146.078125 122.523438 156.5625 119.664062 181.757812 111.269531 Z M 157.578125 108.429688 L 188.375 97.042969 C 192.992188 95.332031 196.773438 93.503906 196.773438 92.984375 C 196.773438 92.460938 195.742188 92.355469 194.480469 92.75 C 154.179688 105.339844 126.636719 114.542969 125.953125 115.648438 C 125.613281 116.199219 125.871094 117.296875 126.527344 118.085938 C 127.550781 119.316406 128.253906 119.320312 131.449219 118.113281 C 133.5 117.335938 145.257812 112.980469 157.578125 108.429688 Z M 157.578125 108.429688 " fill-opacity="1" fill-rule="nonzero"/></g></svg>